<?xml version="1.0"?>
<!DOCTYPE svg PUBLIC "-//W3C//DTD SVG 1.0//EN"
	"http://www.w3.org/TR/2001/REC-SVG-20010904/DTD/svg10.dtd">
<!-- Generator: Adobe Illustrator 9.0, SVG Export Plug-In  -->
<svg width="108.783pt" height="29.606pt" viewBox="0 0 241.741 65.815"
	xml:space="preserve">
	<g id="Calque_x0020_1" style="fill-rule:nonzero;clip-rule:nonzero;stroke:rgb(0,0,0);stroke-miterlimit:4">
		<g>
			<path style="fill:rgb(13,43,136);stroke:none"
				d="M18.45 10.823 L0 10.823 L0 4.163 L44.91 4.163 L44.91 10.823 L26.37 10.823 L26.37
					64.825 L18.45 64.825 z"/>
			<path style="fill:rgb(13,43,136);stroke:none"
				d="M89.476 36.383 L65.986 36.383 L65.986 58.254 L92.266 58.254 L92.266 64.824 L58.066
					64.824 L58.066 4.163 L90.916 4.163 L90.916 10.733 L65.986 10.733 L65.986
					29.903 L89.476 29.903 z"/>
			<path style="fill:rgb(13,43,136);stroke:none"
				d="M112.844 4.163 L120.763 4.163 L120.763 58.255 L146.677 58.255 L146.677 64.825 L112.844
					64.825 z"/>
			<path style="fill:rgb(158,189,13);stroke:none"
				d="M168.726 0 L160.806 0 L160.806 16.635 L168.726 16.635 z"/>
			<path style="fill:rgb(13,43,136);stroke:none"
				d="M160.808 20.798 L160.808 64.825 L168.728 64.825 L168.728 20.798 z"/>
			<path style="fill:rgb(13,43,136);stroke:none"
				d="M213.571 65.815 C197.462 65.815 186.301 53.395 186.301 35.033 C186.301 15.773 198.18
					3.173 214.381 3.173 C231.031 3.173 241.74 15.863 241.74 33.863 C241.74
					54.655 229.051 65.815 213.66 65.815 L213.57 65.815 zM213.931 59.424 C226.353
					59.424 233.372 47.994 233.372 34.223 C233.372 22.162 227.071 9.562 214.022
					9.562 C200.971 9.562 194.491 21.712 194.491 34.852 C194.491 47.635 201.511
					59.424 213.841 59.424 z"/>
		</g>
	</g>
</svg>
